<svg width="269" height="18" xmlns="http://www.w3.org/2000/svg"><g fill="none"><path d="M7.532 18.001c2.669 0 5.007-1.354 6.227-3.438l-2.462-1.437c-.683 1.27-2.11 2.062-3.765 2.062-2.835 0-4.697-1.979-4.697-4.77 0-2.813 1.862-4.792 4.697-4.792 1.655 0 3.062.791 3.765 2.083l2.462-1.437c-1.241-2.084-3.579-3.438-6.227-3.438C3.145 2.834 0 6.147 0 10.417c0 4.25 3.145 7.584 7.532 7.584zm19.031-.291h3.082l-3.207-5.5c1.656-.772 2.794-2.418 2.794-4.25a4.825 4.825 0 0 0-4.821-4.834h-5.794v14.583h2.855v-5.062h2.173l2.918 5.062zm-5.09-11.897h2.938c1.076 0 1.965.938 1.965 2.146s-.89 2.167-1.965 2.167h-2.939V5.813zM45.49 3.126h-3.23l-3.145 6.083-3.145-6.083h-3.227l4.945 8.896v5.687h2.834v-5.687l4.966-8.896zm9.891 0h-5.4v14.583h2.855v-4.792h2.545c2.794 0 4.946-2.166 4.946-4.895 0-2.73-2.152-4.896-4.946-4.896zm0 7.104h-2.545V5.813h2.545c1.221 0 2.11.938 2.11 2.209 0 1.25-.889 2.208-2.11 2.208zm19.225-7.104H63.951v2.75h3.89v11.833h2.855V5.876h3.91v-2.75zm10.718 14.875c4.18 0 7.532-3.333 7.532-7.584 0-4.27-3.352-7.583-7.532-7.583s-7.51 3.313-7.51 7.583c0 4.25 3.33 7.584 7.51 7.584zm0-2.813c-2.627 0-4.676-1.979-4.676-4.77 0-2.813 2.049-4.792 4.676-4.792 2.628 0 4.676 1.979 4.676 4.791 0 2.792-2.048 4.771-4.676 4.771zm30.23 2.522h3.103l-5.09-14.584h-3.538l-5.069 14.583h3.083l.869-2.625h5.773l.869 2.625zm-5.732-5.313l1.987-5.959 1.986 5.959h-3.973zm17.967 5.604c3.083 0 5.256-1.667 5.256-4.396 0-2.98-2.442-3.75-4.739-4.48-2.193-.666-2.752-1.145-2.752-2.04 0-.834.704-1.46 1.904-1.46 1.469 0 2.255.772 2.773 1.876l2.4-1.396c-.973-2.042-2.793-3.271-5.173-3.271-2.483 0-4.759 1.583-4.759 4.333 0 2.771 2.152 3.709 4.366 4.355 2.152.625 3.124 1.041 3.124 2.125 0 .812-.6 1.541-2.317 1.541-1.8 0-2.814-.875-3.331-2.229l-2.442 1.438c.786 2.166 2.731 3.604 5.69 3.604zm14.722 0c3.083 0 5.256-1.667 5.256-4.396 0-2.98-2.442-3.75-4.738-4.48-2.194-.666-2.752-1.145-2.752-2.04 0-.834.703-1.46 1.903-1.46 1.469 0 2.255.772 2.773 1.876l2.4-1.396c-.973-2.042-2.793-3.271-5.173-3.271-2.483 0-4.759 1.583-4.759 4.333 0 2.771 2.152 3.709 4.366 4.355 2.152.625 3.124 1.041 3.124 2.125 0 .812-.6 1.541-2.317 1.541-1.8 0-2.814-.875-3.331-2.229l-2.442 1.438c.786 2.166 2.731 3.604 5.69 3.604zm39.251-14.875h-10.656v2.75h3.89v11.833h2.856V5.876h3.91v-2.75zm9.239 14.875c3.083 0 5.255-1.667 5.255-4.396 0-2.98-2.441-3.75-4.738-4.48-2.193-.666-2.752-1.145-2.752-2.04 0-.834.704-1.46 1.904-1.46 1.469 0 2.255.772 2.772 1.876l2.401-1.396c-.973-2.042-2.794-3.271-5.173-3.271-2.483 0-4.759 1.583-4.759 4.333 0 2.771 2.152 3.709 4.366 4.355 2.152.625 3.124 1.041 3.124 2.125 0 .812-.6 1.541-2.317 1.541-1.8 0-2.814-.875-3.332-2.229l-2.441 1.438c.786 2.166 2.731 3.604 5.69 3.604zm28.098-.291h1.262l-3.6-6.126c1.842-.5 3.187-2.167 3.187-4.146 0-2.375-1.925-4.312-4.283-4.312h-5.711v14.583h1.097V11.73h4.572l3.476 5.98zm-8.048-13.543h4.614c1.758 0 3.186 1.459 3.186 3.271 0 1.792-1.428 3.25-3.186 3.25h-4.614v-6.52zm24.441 13.543h1.159l-5.607-14.584h-1.159l-5.628 14.583h1.159l1.407-3.708h7.262l1.407 3.708zm-8.255-4.75l3.228-8.48 3.227 8.48h-6.455zm24.144-9.834v12.542l-8.566-12.542h-.952v14.583h1.097V5.167l8.545 12.542h.973V3.126h-1.097zM269 17.71l-7.531-7.5 7.324-7.084h-1.469l-7.056 6.791V3.126h-1.096v14.583h1.096v-7.187l7.263 7.187H269z" fill="#333"/><path fill="#3EC7C6" d="M153.258 17.709V9.376h2.69v8.333zm4.965 0V4.167h2.69V17.71h-2.69zm5.175 0V0h2.69v17.709z"/></g></svg>