<svg width="31" height="30" xmlns="http://www.w3.org/2000/svg"><g fill="#3EC7C6"><path d="M17.355 15.938h-6.098v4.687h6.098a2.348 2.348 0 0 0 2.345-2.344 2.348 2.348 0 0 0-2.345-2.343zm-.938-6.563h-5.16v4.688h5.16a2.348 2.348 0 0 0 2.345-2.344 2.348 2.348 0 0 0-2.345-2.344z"/><path d="M15.008 0C6.72 0 0 6.716 0 15c0 8.284 6.72 15 15.008 15s15.008-6.716 15.008-15c0-8.284-6.72-15-15.008-15zm2.345 22.5h-.469v.938a.938.938 0 0 1-1.876 0V22.5h-1.876v.938a.938.938 0 0 1-1.876 0V22.5h-.938a.938.938 0 0 1-.938-.938V8.438c0-.517.42-.937.938-.937h.938v-.938a.938.938 0 0 1 1.876 0V7.5h1.876v-.938a.938.938 0 0 1 1.876 0v.985c2.105.236 3.752 2.006 3.752 4.172a4.186 4.186 0 0 1-1.19 2.921c1.265.731 2.128 2.08 2.128 3.641a4.225 4.225 0 0 1-4.221 4.219z"/></g></svg>