<svg width="28" height="28" xmlns="http://www.w3.org/2000/svg"><g fill="#3EC7C6"><path d="M10.168 17.023a1.656 1.656 0 1 0 .001-3.311 1.656 1.656 0 0 0-.001 3.311z"/><path d="M0 0v27.632h27.646V0H0zm24.447 17.15c-.387 3.859-4.97 6.916-10.558 6.916-5.551 0-10.11-3.018-10.55-6.841a3.71 3.71 0 0 1-1.8-3.194c0-2.045 1.611-3.707 3.59-3.707.719 0 1.386.22 1.948.596-.033.023-.062.05-.096.073 1.672-1.015 3.798-1.665 6.13-1.784l1.87-5.36 4.004.956a2.785 2.785 0 0 1 2.373-1.335c1.544 0 2.8 1.254 2.8 2.797a2.802 2.802 0 0 1-2.8 2.798 2.802 2.802 0 0 1-2.798-2.798c0-.094.019-.183.027-.276l-2.801-.67L14.434 9.2c2.343.084 4.493.697 6.197 1.687a3.481 3.481 0 0 1 1.888-.562c1.978 0 3.59 1.662 3.59 3.707a3.73 3.73 0 0 1-1.663 3.118z"/><path d="M17.284 17.024a1.655 1.655 0 1 0 .001-3.31 1.655 1.655 0 0 0 0 3.31zm-.266 2.024c-3.509 2.312-6.337.131-6.465.034a.62.62 0 0 0-.872.093.624.624 0 0 0 .092.876c.023.018 1.64 1.29 3.987 1.29 1.166 0 2.52-.314 3.943-1.255a.623.623 0 1 0-.685-1.038z"/></g></svg>