<svg width="25" height="21" fill="none" xmlns="http://www.w3.org/2000/svg"><path fill="#fff" fill-opacity=".6" d="M.062 0h24v21h-24z"/><path d="M24.062 2.485a9.288 9.288 0 0 1-2.827.835c1.016-.656 1.795-1.696 2.164-2.932a9.506 9.506 0 0 1-3.129 1.287C19.372.643 18.094 0 16.677 0c-2.72 0-4.924 2.375-4.924 5.302 0 .415.044.82.128 1.209C7.79 6.289 4.16 4.178 1.734.969a5.577 5.577 0 0 0-.666 2.666c0 1.84.87 3.464 2.19 4.413a4.659 4.659 0 0 1-2.23-.665v.066c0 2.569 1.697 4.713 3.948 5.2a4.65 4.65 0 0 1-1.297.186c-.318 0-.626-.034-.927-.098.627 2.108 2.445 3.641 4.598 3.683-1.684 1.422-3.808 2.267-6.114 2.267-.398 0-.79-.026-1.174-.073C2.24 20.12 4.828 21 7.608 21c9.057 0 14.008-8.08 14.008-15.089l-.017-.686a10.282 10.282 0 0 0 2.463-2.74z" fill="#3EC7C6"/></svg>