<svg width="35" height="20" fill="none" xmlns="http://www.w3.org/2000/svg"><path fill="#fff" fill-opacity=".6" d="M.18.917h34v19h-34z"/><path d="M34 18.076a2.291 2.291 0 0 0-.115-.217c-.59-1.04-1.717-2.318-3.381-3.832l-.035-.035-.018-.017-.018-.017h-.017c-.756-.705-1.234-1.18-1.434-1.422-.367-.463-.449-.93-.248-1.405.141-.358.673-1.115 1.593-2.27.484-.614.867-1.105 1.15-1.475 2.042-2.658 2.927-4.357 2.656-5.097l-.106-.173c-.07-.104-.253-.2-.548-.286-.295-.087-.673-.101-1.133-.044l-5.099.035c-.082-.029-.2-.026-.354.009l-.23.052-.089.043-.07.052a.78.78 0 0 0-.195.182 1.17 1.17 0 0 0-.176.304 28.07 28.07 0 0 1-1.895 3.9 36.883 36.883 0 0 1-1.204 1.865c-.366.526-.672.913-.92 1.161a6.378 6.378 0 0 1-.673.599c-.2.15-.354.214-.46.19a13.112 13.112 0 0 1-.301-.07 1.162 1.162 0 0 1-.398-.424 1.878 1.878 0 0 1-.204-.676 7.294 7.294 0 0 1-.062-.702c-.006-.197-.003-.474.01-.833.011-.358.017-.6.017-.728 0-.44.009-.916.026-1.43.018-.515.032-.922.044-1.223.013-.3.018-.618.018-.953 0-.336-.02-.598-.062-.79a2.66 2.66 0 0 0-.185-.554.94.94 0 0 0-.363-.416 2.07 2.07 0 0 0-.593-.234c-.626-.14-1.422-.214-2.39-.226-2.195-.023-3.606.116-4.231.417-.248.127-.472.3-.673.52-.212.254-.242.393-.088.416.708.103 1.21.352 1.504.745l.107.208c.082.15.165.416.247.798.083.381.136.803.16 1.265.059.844.059 1.567 0 2.168-.06.6-.115 1.069-.168 1.404a2.768 2.768 0 0 1-.24.815 3.403 3.403 0 0 1-.212.381.302.302 0 0 1-.088.087 1.35 1.35 0 0 1-.478.087c-.166 0-.366-.081-.602-.243a4.217 4.217 0 0 1-.735-.668c-.254-.283-.54-.679-.859-1.187a20.588 20.588 0 0 1-.99-1.803l-.284-.503a42.92 42.92 0 0 1-.726-1.413 26.971 26.971 0 0 1-.814-1.795 1.146 1.146 0 0 0-.425-.555l-.088-.052a1.22 1.22 0 0 0-.284-.147 1.91 1.91 0 0 0-.407-.113l-4.85.035c-.496 0-.832.11-1.01.33l-.07.103a.551.551 0 0 0-.053.278c0 .127.035.283.106.468a56.714 56.714 0 0 0 2.31 4.716c.832 1.514 1.555 2.734 2.168 3.658a43.17 43.17 0 0 0 1.877 2.618c.637.82 1.06 1.347 1.265 1.578.207.231.37.405.487.52l.443.416c.283.278.7.61 1.248.997a21.33 21.33 0 0 0 1.823 1.145c.667.375 1.443.682 2.328.918a8.209 8.209 0 0 0 2.585.287h2.036c.413-.035.725-.162.938-.382l.07-.087c.048-.069.092-.176.133-.32.042-.144.062-.304.062-.477a5.598 5.598 0 0 1 .115-1.343c.088-.4.189-.7.301-.902.113-.202.24-.373.38-.511.142-.139.243-.223.302-.252.059-.029.106-.049.141-.06.283-.093.617-.003 1 .269.384.271.744.607 1.08 1.005.337.4.741.847 1.213 1.344.472.497.885.866 1.24 1.11l.353.208c.237.138.543.266.921.381.377.116.708.145.991.087l4.532-.07c.448 0 .797-.072 1.044-.216.248-.145.395-.304.443-.477.047-.173.05-.37.009-.59a2.14 2.14 0 0 0-.125-.46z" fill="#BDBDBD"/></svg>