<svg width="24" height="32" viewBox="0 0 24 32" fill="none" xmlns="http://www.w3.org/2000/svg">
<path d="M16.8078 15.0564C17.1011 14.7973 17.4367 14.5109 17.7918 14.2076C20.4118 11.9708 24 8.90744 24 5.6875V3.75C24 1.68225 22.3436 0 20.3077 0H3.69231C1.65637 0 0 1.68225 0 3.75V5.6875C0 8.90744 3.58825 11.9708 6.20818 14.2076C6.56332 14.5109 6.89883 14.7973 7.19212 15.0564C7.47089 15.3027 7.63077 15.6466 7.63077 16C7.63077 16.3533 7.47089 16.6972 7.19218 16.9436C6.89889 17.2027 6.56332 17.4891 6.20818 17.7924C3.58825 20.0292 0 23.0926 0 26.3125V28.25C0 30.3177 1.65637 32 3.69231 32H20.3077C22.3436 32 24 30.3177 24 28.25C24 27.5596 23.449 27 22.7692 27C22.0895 27 21.5385 27.5596 21.5385 28.25C21.5385 28.9392 20.9863 29.5 20.3077 29.5H3.69231C3.01366 29.5 2.46154 28.9392 2.46154 28.25V26.3125C2.46154 24.257 5.7984 21.4082 7.79212 19.706C8.15545 19.3958 8.49877 19.1027 8.80788 18.8296C9.62419 18.1083 10.0923 17.0769 10.0923 16C10.0923 14.923 9.62418 13.8916 8.80782 13.1703C8.49871 12.8973 8.15545 12.6042 7.79212 12.2939C5.7984 10.5918 2.46154 7.743 2.46154 5.6875V3.75C2.46154 3.06075 3.01366 2.5 3.69231 2.5H20.3077C20.9863 2.5 21.5385 3.06075 21.5385 3.75V5.6875C21.5385 7.743 18.2016 10.5918 16.2079 12.2939C15.8446 12.6041 15.5012 12.8972 15.1921 13.1703C14.3758 13.8916 13.9077 14.923 13.9077 16C13.9077 17.077 14.3758 18.1084 15.1922 18.8296C15.5143 19.1142 15.8733 19.4194 16.2534 19.7426C17.4507 20.7604 18.8078 21.9141 19.879 23.1416C20.3298 23.6581 21.1076 23.7059 21.6164 23.2479C22.125 22.7901 22.1719 22 21.7211 21.4834C20.5283 20.1166 19.034 18.8463 17.8333 17.8255C17.4625 17.5103 17.1122 17.2125 16.8079 16.9435C16.5291 16.6972 16.3692 16.3533 16.3692 16C16.3692 15.6467 16.5291 15.3027 16.8078 15.0564Z" fill="#3EC7C6"/>
<path d="M7.36711 0.479297C6.63345 -0.159766 5.55118 -0.159766 4.81758 0.479297C4.77222 0.518797 1.24865 3.53855 0.312528 4.55498C0.30219 4.56623 0.291852 4.57742 0.281698 4.58861C-0.340948 5.26886 0.136344 6.37505 1.05118 6.37505H11.1334C12.0482 6.37505 12.5255 5.26886 11.903 4.58861C11.8928 4.57748 11.8825 4.56623 11.8722 4.55498C10.936 3.53855 7.41247 0.518859 7.36711 0.479297Z" transform="translate(5.90771 20.4375)" fill="#3EC7C6"/>
<path d="M16.8078 15.0564C17.1011 14.7973 17.4367 14.5109 17.7918 14.2076C20.4118 11.9708 24 8.90744 24 5.6875V3.75C24 1.68225 22.3436 0 20.3077 0H3.69231C1.65637 0 0 1.68225 0 3.75V5.6875C0 8.90744 3.58825 11.9708 6.20818 14.2076C6.56332 14.5109 6.89883 14.7973 7.19212 15.0564C7.47089 15.3027 7.63077 15.6466 7.63077 16C7.63077 16.3533 7.47089 16.6972 7.19218 16.9436C6.89889 17.2027 6.56332 17.4891 6.20818 17.7924C3.58825 20.0292 0 23.0926 0 26.3125V28.25C0 30.3177 1.65637 32 3.69231 32H20.3077C22.3436 32 24 30.3177 24 28.25C24 27.5596 23.449 27 22.7692 27C22.0895 27 21.5385 27.5596 21.5385 28.25C21.5385 28.9392 20.9863 29.5 20.3077 29.5H3.69231C3.01366 29.5 2.46154 28.9392 2.46154 28.25V26.3125C2.46154 24.257 5.7984 21.4082 7.79212 19.706C8.15545 19.3958 8.49877 19.1027 8.80788 18.8296C9.62419 18.1083 10.0923 17.0769 10.0923 16C10.0923 14.923 9.62418 13.8916 8.80782 13.1703C8.49871 12.8973 8.15545 12.6042 7.79212 12.2939C5.7984 10.5918 2.46154 7.743 2.46154 5.6875V3.75C2.46154 3.06075 3.01366 2.5 3.69231 2.5H20.3077C20.9863 2.5 21.5385 3.06075 21.5385 3.75V5.6875C21.5385 7.743 18.2016 10.5918 16.2079 12.2939C15.8446 12.6041 15.5012 12.8972 15.1921 13.1703C14.3758 13.8916 13.9077 14.923 13.9077 16C13.9077 17.077 14.3758 18.1084 15.1922 18.8296C15.5143 19.1142 15.8733 19.4194 16.2534 19.7426C17.4507 20.7604 18.8078 21.9141 19.879 23.1416C20.3298 23.6581 21.1076 23.7059 21.6164 23.2479C22.125 22.7901 22.1719 22 21.7211 21.4834C20.5283 20.1166 19.034 18.8463 17.8333 17.8255C17.4625 17.5103 17.1122 17.2125 16.8079 16.9435C16.5291 16.6972 16.3692 16.3533 16.3692 16C16.3692 15.6467 16.5291 15.3027 16.8078 15.0564Z" transform="translate(24 32) rotate(-180)" fill="#3EC7C6"/>
<path d="M7.36711 0.479297C6.63345 -0.159766 5.55118 -0.159766 4.81758 0.479297C4.77222 0.518797 1.24865 3.53855 0.312528 4.55498C0.30219 4.56623 0.291852 4.57742 0.281698 4.58861C-0.340948 5.26886 0.136344 6.37505 1.05118 6.37505H11.1334C12.0482 6.37505 12.5255 5.26886 11.903 4.58861C11.8928 4.57748 11.8825 4.56623 11.8722 4.55498C10.936 3.53855 7.41247 0.518859 7.36711 0.479297Z" transform="translate(18.1841 11.375) rotate(180)" fill="#3EC7C6"/>
</svg>
