<svg width="30" height="30" viewBox="0 0 30 30" version="1.1" xmlns="http://www.w3.org/2000/svg" xmlns:xlink="http://www.w3.org/1999/xlink">
<g id="Canvas" fill="none">
<g id="Vector">
<path d="M 26.8658 0L 1.56949 0C 0.703273 0 0 0.701494 0 1.56865L 0 26.8515C 0 27.7186 0.703273 28.4211 1.56949 28.4211L 15.1883 28.4211L 15.1883 17.4148L 11.4827 17.4148L 11.4827 13.1248L 15.1883 13.1248L 15.1883 9.96132C 15.1883 6.29099 17.4306 4.29133 20.7072 4.29133C 22.2781 4.29133 23.6252 4.40879 24.018 4.4598L 24.018 8.29626L 21.7453 8.2972C 19.9637 8.2972 19.62 9.14376 19.62 10.3853L 19.62 13.1234L 23.8705 13.1234L 23.3148 17.4129L 19.6195 17.4129L 19.6195 28.4196L 26.8653 28.4196C 27.7325 28.4196 28.4362 27.7163 28.4362 26.8515L 28.4362 1.56772C 28.4357 0.701495 27.7329 0 26.8658 0Z" transform="translate(0.84375 0.789062)" fill="#3EC7C6"/>
</g>
</g>
</svg>

