<svg width="30" height="30" xmlns="http://www.w3.org/2000/svg"><g fill="#BDBDBD"><path d="M20.499 10.137l-10.43 6.466a.474.474 0 0 0-.204.543l1.4 4.506c.029.095.167.082.178-.017l.34-3.021a.474.474 0 0 1 .157-.302l8.833-7.807c.211-.187-.034-.517-.274-.368z"/><path d="M.766.79v28.42h28.436V.79H.766zm23.703 7.384l-3.246 15.514a1.023 1.023 0 0 1-1.607.614l-4.902-3.596-2.498 2.55a.83.83 0 0 1-1.384-.331l-1.804-5.72-4.832-1.426c-.634-.187-.671-1.07-.055-1.31l19.015-7.406a.978.978 0 0 1 1.313 1.111z"/></g></svg>