<svg width="30" height="30" xmlns="http://www.w3.org/2000/svg"><path fill-rule="evenodd" clip-rule="evenodd" d="M.898.79v28.421h28.437V.79H.898zm22.046 10.198c.008.173.012.347.012.522 0 5.335-4.062 11.486-11.492 11.486-2.28 0-4.403-.669-6.19-1.814a8.105 8.105 0 0 0 5.98-1.672 4.043 4.043 0 0 1-3.774-2.803 4.034 4.034 0 0 0 1.824-.07 4.04 4.04 0 0 1-3.24-3.957v-.051a4.025 4.025 0 0 0 1.83.505 4.034 4.034 0 0 1-1.25-5.39 11.47 11.47 0 0 0 8.325 4.218 4.038 4.038 0 0 1 3.934-4.957c1.162 0 2.211.49 2.948 1.275a8.087 8.087 0 0 0 2.565-.98 4.049 4.049 0 0 1-1.776 2.234 8.08 8.08 0 0 0 2.32-.636 8.2 8.2 0 0 1-2.016 2.09z" fill="#3EC7C6"/></svg>