<svg width="30" height="30" xmlns="http://www.w3.org/2000/svg"><path d="M.867 29.211V.79h28.436v28.421H.867zm6.955-10.253c0 .45-.022.557-.258.836l-1.997 2.424v.321h5.666v-.321l-1.995-2.424c-.236-.279-.28-.408-.28-.836v-7.27l4.978 10.851h.58l4.27-10.852v8.644c0 .235 0 .277-.15.428l-1.5 1.459v.321h7.466v-.321l-1.48-1.459c-.15-.15-.171-.193-.171-.428V9.67c0-.236.02-.28.17-.429l1.481-1.459v-.321h-5.257l-3.755 9.372-4.227-9.372H5.846v.321l1.739 2.144c.194.237.236.3.236.624v8.407z" fill="#BDBDBD"/></svg>