<svg width="39" height="26" xmlns="http://www.w3.org/2000/svg"><path d="M37.12 2.803C36.092 1.03 34.975.703 32.703.579 30.433.43 24.724.37 19.779.37 14.824.368 9.113.43 6.845.576c-2.268.126-3.386.45-4.424 2.226C1.36 4.573.816 7.623.816 12.993v.017c0 5.347.545 8.42 1.605 10.172 1.038 1.773 2.154 2.095 4.422 2.244 2.27.129 7.98.204 12.936.204 4.945 0 10.654-.075 12.926-.202 2.273-.149 3.389-.47 4.417-2.244 1.069-1.752 1.61-4.825 1.61-10.171v-.019c0-5.372-.541-8.422-1.612-10.192zM15.035 19.89V6.11L26.883 13l-11.848 6.89z" fill="#BDBDBD"/></svg>