<svg width="30" height="30" xmlns="http://www.w3.org/2000/svg"><path d="M29.239.79H1.535a.758.758 0 0 0-.762.753v27.702c0 .417.341.755.762.755h9.21v-.007c.415-.005.733-.235.748-.626.038-1.014.011-2.03.011-3.011-.742.034-1.45.127-2.15.087-1.544-.088-2.73-.741-3.346-2.24-.365-.888-.914-1.647-1.77-2.154a1.75 1.75 0 0 1-.421-.376c-.16-.184-.13-.374.122-.425.255-.051.533-.087.784-.04.987.183 1.669.796 2.19 1.612 1.033 1.613 2.622 2.107 4.41 1.362.1-.042.226-.143.245-.234.144-.715.413-1.366.956-1.937-.603-.11-1.162-.192-1.71-.318-1.578-.362-2.996-1.013-4.033-2.306-.846-1.055-1.233-2.29-1.41-3.604-.279-2.059-.03-3.986 1.397-5.63a.44.44 0 0 0 .079-.358c-.357-1.156-.303-2.304.051-3.448.186-.6.238-.63.856-.547.038.005.075.015.112.021 1.24.204 2.308.799 3.359 1.438.141.085.357.139.512.101a15.871 15.871 0 0 1 7.528.003c.146.035.34-.015.48-.087.572-.297 1.119-.64 1.698-.922.673-.326 1.383-.572 2.146-.558.134.003.34.129.385.246.46 1.207.557 2.436.19 3.692-.038.134.02.325.092.457.362.657.866 1.264 1.095 1.961.697 2.125.443 4.228-.506 6.225-.87 1.83-2.482 2.758-4.39 3.237-.645.161-1.306.26-2.001.395.911.943 1.054 2.095 1.038 3.3-.017 1.245-.012 2.49-.013 3.733 0 .603.265.936.728.956l9.793.001V1.543a.758.758 0 0 0-.761-.754z" fill="#3EC7C6"/></svg>