<svg width="20" height="20" fill="none" xmlns="http://www.w3.org/2000/svg"><path d="M9.996 0a10 10 0 1 1 0 20 9.968 9.968 0 0 1-7.066-2.928A9.96 9.96 0 0 1 0 10a9.96 9.96 0 0 1 2.93-7.072A9.97 9.97 0 0 1 9.996 0zm5.099 9.454c.3 0 .538.246.538.546 0 .3-.238.546-.538.546H9.996a.546.546 0 0 1-.469-.277l-.007-.008-.008-.015v-.008l-.008-.015-.008-.016V10.2l-.007-.015-.008-.008v-.015l-.008-.016v-.008l-.008-.015v-.031l-.007-.008V3.49c0-.3.238-.538.538-.538.3 0 .546.238.546.538v5.964h4.553zm1.207-5.757a8.887 8.887 0 0 0-6.306-2.605c-2.46 0-4.69.99-6.305 2.605A8.912 8.912 0 0 0 1.084 10c0 2.46 1 4.689 2.607 6.303a8.887 8.887 0 0 0 6.305 2.606c2.46 0 4.69-.992 6.306-2.606A8.887 8.887 0 0 0 18.916 10c0-2.46-1-4.689-2.614-6.303z" fill="#3EC7C6"/></svg>