<svg width="10" height="9" fill="none" xmlns="http://www.w3.org/2000/svg"><path d="M.353 9h9.294A.345.345 0 0 0 10 8.656V.981a.345.345 0 0 0-.353-.344H7.898V.344A.345.345 0 0 0 7.545 0a.345.345 0 0 0-.353.344v.293H2.868V.344A.345.345 0 0 0 2.515 0a.345.345 0 0 0-.353.344v.293H.353A.345.345 0 0 0 0 .981v7.683C0 8.85.164 9 .353 9zm.353-7.675h1.456v.185c0 .193.155.344.353.344a.345.345 0 0 0 .353-.344v-.185h4.324v.185c0 .193.155.344.353.344a.345.345 0 0 0 .353-.344v-.185h1.404v.89H.706v-.89zm0 1.577h8.588v5.419H.706V2.902z" fill="#56CECD"/><path d="M7.545 4.479H2.463a.345.345 0 0 0-.353.344c0 .193.155.344.353.344h5.082a.345.345 0 0 0 .353-.344.345.345 0 0 0-.353-.344zM5.004 6.14h-2.54a.345.345 0 0 0-.354.344c0 .193.155.344.353.344h2.541a.345.345 0 0 0 .354-.344.345.345 0 0 0-.354-.344z" fill="#56CECD"/></svg>