<svg width="31" height="30" viewBox="0 0 31 30" version="1.1" xmlns="http://www.w3.org/2000/svg" xmlns:xlink="http://www.w3.org/1999/xlink">
<g id="Canvas" fill="none">
<g id="001-money">
<g id="Group">
<g id="Group_2">
<g id="Vector">
<path d="M 6.097 0L 5.159 0L 0 0L 0 4.6875L 6.097 4.6875C 7.38956 4.6875 8.442 3.63563 8.442 2.34375C 8.442 1.05187 7.38956 0 6.097 0Z" transform="translate(11.2578 15.9375)" fill="#BDBDBD"/>
</g>
</g>
</g>
<g id="Group_3">
<g id="Group_4">
<g id="Vector_2">
<path d="M 5.159 0L 0 0L 0 4.6875L 5.159 4.6875C 6.45156 4.6875 7.504 3.63563 7.504 2.34375C 7.504 1.05187 6.45156 0 5.159 0Z" transform="translate(11.2578 9.375)" fill="#BDBDBD"/>
</g>
</g>
</g>
<g id="Group_5">
<g id="Group_6">
<g id="Vector_3">
<path d="M 15.008 0C 6.71983 0 0 6.71625 0 15C 0 23.2838 6.71983 30 15.008 30C 23.2962 30 30.016 23.2838 30.016 15C 30.016 6.71625 23.2962 0 15.008 0ZM 17.353 22.5L 16.884 22.5L 16.884 23.4375C 16.884 23.955 16.4638 24.375 15.946 24.375C 15.4282 24.375 15.008 23.955 15.008 23.4375L 15.008 22.5L 13.132 22.5L 13.132 23.4375C 13.132 23.955 12.7118 24.375 12.194 24.375C 11.6762 24.375 11.256 23.955 11.256 23.4375L 11.256 22.5L 10.318 22.5C 9.80022 22.5 9.38 22.08 9.38 21.5625L 9.38 8.4375C 9.38 7.92 9.80022 7.5 10.318 7.5L 11.256 7.5L 11.256 6.5625C 11.256 6.045 11.6762 5.625 12.194 5.625C 12.7118 5.625 13.132 6.045 13.132 6.5625L 13.132 7.5L 15.008 7.5L 15.008 6.5625C 15.008 6.045 15.4282 5.625 15.946 5.625C 16.4638 5.625 16.884 6.045 16.884 6.5625L 16.884 7.54688C 18.9889 7.78313 20.636 9.55313 20.636 11.7188C 20.636 12.855 20.1801 13.8825 19.4466 14.64C 20.711 15.3713 21.574 16.7194 21.574 18.2812C 21.574 20.6081 19.6792 22.5 17.353 22.5Z" fill="#BDBDBD"/>
</g>
</g>
</g>
</g>
</g>
</svg>

