<svg width="30" height="30" viewBox="0 0 30 30" version="1.1" xmlns="http://www.w3.org/2000/svg" xmlns:xlink="http://www.w3.org/1999/xlink">
<g id="Canvas" fill="none">
<g id="Group 2">
<g id="Group">
<g id="Vector">
<path d="M 10.6549 0.0374339L 0.224477 6.50305C 0.0408431 6.61686 -0.0427066 6.84037 0.021375 7.04667L 1.4205 11.5526C 1.44989 11.6473 1.58791 11.6343 1.59902 11.5357L 1.93908 8.51434C 1.95219 8.39759 2.00822 8.28989 2.09626 8.21206L 10.9289 0.405567C 11.1404 0.218725 10.8948 -0.111303 10.6549 0.0374339Z" transform="translate(9.84375 10.0996)" fill="#3EC7C6"/>
</g>
</g>
<g id="Vector_2">
<path d="M 0 0L 0 28.4211L 28.4362 28.4211L 28.4362 0L 0 0ZM 23.7035 7.38498L 20.4569 22.8986C 20.3045 23.6265 19.4502 23.9535 18.8504 23.5134L 13.9485 19.9172L 11.4502 22.4667C 11.0117 22.9142 10.2543 22.7331 10.0659 22.1357L 8.2626 16.4165L 3.43052 14.9904C 2.79657 14.8033 2.75919 13.9199 3.37511 13.68L 22.3908 6.27378C 23.1146 5.9919 23.8625 6.62502 23.7035 7.38498Z" transform="translate(0.765625 0.789062)" fill="#3EC7C6"/>
</g>
</g>
</g>
</svg>

