<svg width="30" height="30" viewBox="0 0 30 30" version="1.1" xmlns="http://www.w3.org/2000/svg" xmlns:xlink="http://www.w3.org/1999/xlink">
<g id="Canvas" fill="none">
<g id="005-twitter">
<g id="Vector">
<path fill-rule="evenodd" clip-rule="evenodd" d="M 0 0L 0 28.4211L 28.4362 28.4211L 28.4362 0L 0 0ZM 22.0459 10.1978C 22.0536 10.371 22.0576 10.5451 22.0576 10.72C 22.0576 16.0546 17.9951 22.2056 10.566 22.2056C 8.28512 22.2056 6.16209 21.5374 4.37474 20.3918C 4.69072 20.4294 5.01215 20.4485 5.33826 20.4485C 7.23054 20.4485 8.97203 19.8032 10.3544 18.7202C 8.58698 18.6878 7.0953 17.5207 6.58126 15.9169C 6.828 15.9641 7.08105 15.9895 7.34129 15.9895C 7.70965 15.9895 8.06651 15.9399 8.40543 15.8478C 6.55783 15.4769 5.16551 13.8454 5.16551 11.8896C 5.16551 11.8726 5.16551 11.8556 5.16589 11.8388C 5.71036 12.1411 6.33309 12.3227 6.99524 12.3437C 5.91142 11.6198 5.19858 10.3842 5.19858 8.9838C 5.19858 8.24392 5.39775 7.55057 5.74549 6.95423C 7.73746 9.39662 10.7136 11.0036 14.0703 11.1722C 14.0014 10.8766 13.9655 10.5684 13.9655 10.2521C 13.9655 8.02292 15.774 6.21553 18.0044 6.21553C 19.1662 6.21553 20.2159 6.70568 20.9526 7.49017C 21.8725 7.30933 22.737 6.97321 23.5174 6.51067C 23.2159 7.45337 22.5755 8.24429 21.7415 8.744C 22.5586 8.64637 23.3369 8.42931 24.0613 8.10825C 23.5199 8.91772 22.8352 9.62874 22.0459 10.1978Z" transform="translate(0.898438 0.790039)" fill="#BDBDBD"/>
</g>
</g>
</g>
</svg>

