<svg width="30" height="30" viewBox="0 0 30 30" version="1.1" xmlns="http://www.w3.org/2000/svg" xmlns:xlink="http://www.w3.org/1999/xlink">
<g id="Canvas" fill="none">
<g id="Vector">
<path d="M 0 28.4211L 0 0L 28.4362 0L 28.4362 28.4211L 0 28.4211ZM 6.95468 18.1675C 6.95468 18.6182 6.93275 18.7254 6.69632 19.0039L 4.7001 21.4279L 4.7001 21.7494L 10.3662 21.7494L 10.3662 21.4279L 8.37081 19.0039C 8.13438 18.7254 8.09132 18.5963 8.09132 18.1675L 8.09132 10.8974L 13.0693 21.7494L 13.6494 21.7494L 17.9197 10.8974L 17.9197 19.5407C 17.9197 19.7762 17.9197 19.8184 17.7694 19.9694L 16.2679 21.4279L 16.2679 21.7494L 23.7345 21.7494L 23.7345 21.4279L 22.2542 19.9694C 22.1047 19.8184 22.0836 19.7762 22.0836 19.5407L 22.0836 8.88117C 22.0836 8.64487 22.1047 8.60184 22.2542 8.45242L 23.7353 6.9932L 23.7353 6.67164L 18.4778 6.67164L 14.7226 16.0441L 10.4954 6.67164L 4.97877 6.67164L 4.97877 6.9932L 6.71744 9.13696C 6.91162 9.37408 6.95387 9.43741 6.95387 9.7606L 6.95387 18.1675L 6.95468 18.1675Z" transform="translate(0.867188 0.790039)" fill="#3EC7C6"/>
</g>
</g>
</svg>

