<svg width="39" height="26" viewBox="0 0 39 26" version="1.1" xmlns="http://www.w3.org/2000/svg" xmlns:xlink="http://www.w3.org/1999/xlink">
<g id="Canvas" fill="none">
<g id="004-youtube">
<g id="Group">
<g id="Group_2">
<g id="Vector">
<path d="M 36.3036 2.43445C 35.2751 0.661435 34.159 0.335311 31.8865 0.211292C 29.6163 0.0620096 23.9077 0 18.9622 0C 14.0072 0 8.29626 0.0620097 6.02847 0.208995C 3.76069 0.335311 2.6422 0.659139 1.60428 2.43445C 0.545027 4.20517 0 7.25512 0 12.6247C 0 12.6293 0 12.6316 0 12.6316C 0 12.6362 0 12.6385 0 12.6385L 0 12.6431C 0 17.9897 0.545027 21.0626 1.60428 22.8149C 2.6422 24.5879 3.75832 24.9095 6.0261 25.0588C 8.29626 25.1874 14.0072 25.2632 18.9622 25.2632C 23.9077 25.2632 29.6163 25.1874 31.8888 25.0611C 34.1614 24.9118 35.2775 24.5902 36.3059 22.8172C 37.3746 21.0649 37.9149 17.992 37.9149 12.6454C 37.9149 12.6454 37.9149 12.6385 37.9149 12.6339C 37.9149 12.6339 37.9149 12.6293 37.9149 12.627C 37.9149 7.25512 37.3746 4.20517 36.3036 2.43445ZM 14.2181 19.5215L 14.2181 5.74163L 26.0665 12.6316L 14.2181 19.5215Z" transform="translate(0.816406 0.368164)" fill="#BDBDBD"/>
</g>
</g>
</g>
</g>
</g>
</svg>

