<svg width="28" height="28" viewBox="0 0 28 28" version="1.1" xmlns="http://www.w3.org/2000/svg" xmlns:xlink="http://www.w3.org/1999/xlink">
<g id="Canvas" fill="none">
<g id="Group">
<g id="Group_2">
<g id="Vector">
<path d="M 1.65629 3.3106C 2.57103 3.3106 3.31258 2.5695 3.31258 1.6553C 3.31258 0.741104 2.57103 0 1.65629 0C 0.741545 0 0 0.741104 0 1.6553C 0 2.5695 0.741545 3.3106 1.65629 3.3106Z" transform="translate(8.51172 13.7129)" fill="#3EC7C6"/>
</g>
<g id="Vector_2">
<path d="M 0 0L 0 27.6316L 27.6463 27.6316L 27.6463 0L 0 0ZM 24.4468 17.1498C 24.0599 21.0086 19.4762 24.0658 13.889 24.0658C 8.33797 24.0658 3.7781 21.0475 3.33908 17.2248C 2.26757 16.5839 1.53968 15.4 1.53968 14.0308C 1.53968 11.9861 3.15004 10.3238 5.12875 10.3238C 5.8478 10.3238 6.51473 10.5445 7.07743 10.9197C 7.04386 10.9426 7.01471 10.9691 6.98114 10.993C 8.65333 9.9777 10.7787 9.32794 13.1107 9.20876L 14.9808 3.84824L 18.985 4.80522C 19.4762 4.00715 20.3525 3.46951 21.3577 3.46951C 22.9018 3.46951 24.1579 4.724 24.1579 6.26718C 24.1579 7.81036 22.9018 9.06486 21.3577 9.06486C 19.8171 9.06486 18.5601 7.81036 18.5601 6.26718C 18.5601 6.17272 18.5787 6.08356 18.5866 5.99086L 15.7855 5.32079L 14.4349 9.19993C 16.7784 9.2838 18.9285 9.89736 20.6316 10.887C 21.1819 10.5339 21.8259 10.3247 22.5202 10.3247C 24.498 10.3247 26.1093 11.987 26.1093 14.0316C 26.1093 15.3409 25.4441 16.4912 24.4468 17.1498Z" fill="#3EC7C6"/>
</g>
<g id="Vector_3">
<path d="M 1.6554 3.30883C 2.56966 3.30883 3.31081 2.56813 3.31081 1.65442C 3.31081 0.740708 2.56966 0 1.6554 0C 0.741149 0 0 0.740708 0 1.65442C 0 2.56813 0.741149 3.30883 1.6554 3.30883Z" transform="translate(15.6289 13.7148)" fill="#3EC7C6"/>
</g>
<g id="Vector_4">
<path d="M 7.47484 0.103654C 3.96616 2.41578 1.13766 0.235195 1.01046 0.138084C 0.742802 -0.0790915 0.35236 -0.0340678 0.137705 0.23078C -0.0778334 0.500042 -0.0354328 0.891135 0.230456 1.10654C 0.253424 1.12508 1.86996 2.39724 4.21703 2.39724C 5.38306 2.39724 6.73635 2.08295 8.16032 1.14186C 8.44741 0.952933 8.52691 0.567138 8.33699 0.278453C 8.14707 -0.00669941 7.76104 -0.0861537 7.47484 0.103654Z" transform="translate(9.54297 18.9443)" fill="#3EC7C6"/>
</g>
</g>
</g>
</g>
</svg>

