<svg width="30" height="30" viewBox="0 0 30 30" version="1.1" xmlns="http://www.w3.org/2000/svg" xmlns:xlink="http://www.w3.org/1999/xlink">
<g id="Canvas" fill="none">
<g id="002-github-logo-silhouette-in-a-square">
<g id="Group">
<g id="Group_2">
<g id="Vector">
<path d="M 28.4652 0L 0.761169 0C 0.340736 0 2.17723e-09 0.337701 2.17723e-09 0.754389L 2.17723e-09 28.4561C 2.17723e-09 28.8729 0.340736 29.2105 0.761169 29.2105L 9.97085 29.2105L 9.97085 29.2039C 10.3865 29.1992 10.705 28.9685 10.7196 28.5783C 10.7574 27.5639 10.7307 26.5474 10.7307 25.5668C 9.98896 25.6011 9.28082 25.694 8.58067 25.6539C 7.03643 25.5658 5.8498 24.9128 5.23438 23.4141C 4.86982 22.5263 4.32051 21.7669 3.46501 21.2602C 3.30525 21.1655 3.16557 21.026 3.04333 20.8844C 2.88357 20.6997 2.91346 20.5099 3.16588 20.4592C 3.42054 20.4079 3.69875 20.372 3.94988 20.4186C 4.93619 20.6021 5.61823 21.2151 6.14031 22.0306C 7.17263 23.6438 8.76165 24.1376 10.5494 23.3926C 10.6491 23.3511 10.7758 23.2504 10.7945 23.1585C 10.9387 22.4444 11.208 21.7932 11.7506 21.2224C 11.1473 21.1116 10.5885 21.0301 10.0404 20.9042C 8.46216 20.5423 7.04437 19.8911 6.00758 18.5979C 5.16168 17.543 4.77487 16.3081 4.59706 14.9938C 4.31859 12.9353 4.56785 11.0083 5.99425 9.36326C 6.06632 9.28016 6.10539 9.1099 6.07332 9.00638C 5.71609 7.8495 5.77067 6.70233 6.12474 5.55836C 6.31054 4.95757 6.36228 4.92764 6.98086 5.01136C 7.01869 5.0164 7.05547 5.02581 7.09299 5.03214C 8.33296 5.23547 9.40026 5.83054 10.4516 6.46944C 10.593 6.55537 10.8082 6.60885 10.9635 6.57141C 13.4747 5.96749 15.981 5.97001 18.4918 6.57362C 18.6376 6.60854 18.8323 6.55881 18.9716 6.48646C 19.5432 6.19031 20.0904 5.84602 20.6692 5.56525C 21.3427 5.23891 22.0521 4.99342 22.8158 5.00694C 22.9495 5.00946 23.1563 5.13596 23.201 5.25305C 23.6605 6.45967 23.7574 7.68926 23.3912 8.94498C 23.3521 9.07904 23.4102 9.27008 23.483 9.40224C 23.8444 10.0594 24.3489 10.6658 24.5776 11.3629C 25.2746 13.4875 25.0206 15.5914 24.0717 17.5883C 23.2023 19.4186 21.5898 20.3461 19.6811 20.8245C 19.0364 20.986 18.376 21.0842 17.6806 21.2195C 18.5919 22.163 18.7348 23.3145 18.7186 24.5205C 18.7018 25.7646 18.7062 27.009 18.7056 28.2533C 18.7053 28.856 18.9707 29.189 19.434 29.2085C 19.4337 29.2104 29.2261 29.2104 29.2261 29.2104L 29.2261 0.754389C 29.226 0.337701 28.8853 0 28.4652 0Z" transform="translate(0.773438 0.789062)" fill="#BDBDBD"/>
</g>
</g>
</g>
</g>
</g>
</svg>

