<svg width="62" height="41" xmlns="http://www.w3.org/2000/svg"><g fill="none"><path d="M5.329 9.647c1.745 0 3.273-.861 4.07-2.186L7.79 6.546c-.446.809-1.38 1.312-2.461 1.312-1.853 0-3.07-1.259-3.07-3.034 0-1.79 1.217-3.048 3.07-3.048 1.082 0 2.002.503 2.461 1.325l1.61-.915C8.588.861 7.06 0 5.329 0 2.462 0 .406 2.107.406 4.824c0 2.703 2.056 4.823 4.923 4.823zm12.438-.185h2.015l-2.096-3.499c1.082-.49 1.826-1.537 1.826-2.703 0-1.696-1.407-3.074-3.151-3.074h-3.787v9.276h1.866v-3.22h1.42l1.907 3.22zM14.44 1.895h1.92c.704 0 1.286.596 1.286 1.365 0 .768-.582 1.378-1.285 1.378h-1.92V1.895zM30.136.186h-2.11L25.97 4.055 23.914.185h-2.11l3.233 5.659v3.618h1.853V5.844L30.135.186zm6.468 0h-3.53v9.276h1.867V6.414h1.663c1.826 0 3.232-1.378 3.232-3.114S38.43.186 36.604.186zm0 4.518H34.94V1.895h1.664c.798 0 1.38.596 1.38 1.405 0 .795-.582 1.404-1.38 1.404zM49.172.186h-6.965v1.749h2.542v7.527h1.867V1.935h2.556V.185zm7.003 9.461c2.732 0 4.923-2.12 4.923-4.823C61.098 2.107 58.907 0 56.175 0s-4.91 2.107-4.91 4.824c0 2.703 2.178 4.823 4.91 4.823zm0-1.789c-1.718 0-3.057-1.259-3.057-3.034 0-1.79 1.34-3.048 3.057-3.048 1.717 0 3.056 1.259 3.056 3.048 0 1.775-1.339 3.034-3.056 3.034zM6.924 25.497h2.029L5.626 16.22H3.313L0 25.497h2.015l.568-1.67h3.773l.568 1.67zm-3.746-3.38l1.298-3.79 1.299 3.79H3.178zm11.744 3.565c2.015 0 3.435-1.06 3.435-2.796 0-1.895-1.596-2.385-3.097-2.849-1.433-.424-1.798-.729-1.798-1.299 0-.53.46-.927 1.244-.927.96 0 1.474.49 1.812 1.193l1.569-.888c-.636-1.299-1.826-2.08-3.381-2.08-1.623 0-3.11 1.006-3.11 2.755 0 1.763 1.406 2.36 2.853 2.77 1.406.398 2.042.663 2.042 1.352 0 .517-.392.98-1.515.98-1.176 0-1.839-.556-2.177-1.418l-1.596.915c.514 1.378 1.785 2.292 3.72 2.292zm9.625 0c2.015 0 3.435-1.06 3.435-2.796 0-1.895-1.596-2.385-3.097-2.849-1.433-.424-1.798-.729-1.798-1.299 0-.53.46-.927 1.244-.927.96 0 1.474.49 1.812 1.193l1.569-.888c-.636-1.299-1.826-2.08-3.381-2.08-1.623 0-3.11 1.006-3.11 2.755 0 1.763 1.406 2.36 2.853 2.77 1.406.398 2.042.663 2.042 1.352 0 .517-.392.98-1.515.98-1.176 0-1.839-.556-2.177-1.418l-1.596.915c.514 1.378 1.785 2.292 3.72 2.292zM50.2 16.22h-6.966v1.75h2.543v7.527h1.866V17.97H50.2v-1.75zm6.039 9.462c2.015 0 3.435-1.06 3.435-2.796 0-1.895-1.596-2.385-3.097-2.849-1.434-.424-1.799-.729-1.799-1.299 0-.53.46-.927 1.244-.927.96 0 1.474.49 1.812 1.193l1.57-.888c-.636-1.299-1.826-2.08-3.382-2.08-1.623 0-3.11 1.006-3.11 2.755 0 1.763 1.406 2.36 2.853 2.77 1.407.398 2.042.663 2.042 1.352 0 .517-.392.98-1.514.98-1.177 0-1.84-.556-2.178-1.418l-1.596.915c.514 1.378 1.786 2.292 3.72 2.292zM7.114 40.999h.825l-2.353-3.896c1.204-.318 2.083-1.378 2.083-2.637 0-1.51-1.258-2.743-2.8-2.743H1.137v9.276h.716v-3.803h2.99l2.271 3.803zm-5.26-8.614h3.015a2.08 2.08 0 0 1 2.083 2.08c0 1.14-.933 2.068-2.083 2.068H1.853v-4.148zm15.974 8.614h.757l-3.665-9.276h-.757l-3.679 9.276h.758l.92-2.359h4.746l.92 2.359zm-5.396-3.022l2.11-5.393 2.11 5.393h-4.22zm15.781-6.254V39.7l-5.599-7.977h-.622v9.276h.717V33.02L28.294 41h.636v-9.276h-.717zm11.516 9.276l-4.923-4.77 4.787-4.506h-.96l-4.612 4.32v-4.32h-.716v9.276h.716v-4.572l4.747 4.572h.96z" fill="#333"/><path d="M31.469 20.196v5.3h1.758v-5.3h-1.758zm3.241 5.3v-8.613h1.759v8.613h-1.758zm3.388-11.264v11.264h1.758V14.232h-1.758z" fill="#3EC7C6"/></g></svg>