<svg width="96" height="47" fill="none" xmlns="http://www.w3.org/2000/svg"><path d="M36.9 34.425l-14.6 6.8v-21h.1l14.5-6.8v5.5h3.9v-8.6c0-.6-.4-1.2-.9-1.5L21.5.225c-.7-.3-1.6-.3-2.3 0L.9 8.825c-.6.3-.9.9-.9 1.5v25.5c0 .6.4 1.2 1 1.5l18.3 8.5c.7.3 1.6.3 2.3 0l18.3-8.5c.6-.3 1-.9 1-1.5v-7.2H37v5.8h-.1zm-18.5 6.8l-14.5-6.8v-21l14.5 6.8h.1v21h-.1zm2.5-24.6l-.5.3-.6-.3-13.2-6.2 13.7-6.5 13.7 6.5-13.1 6.2zm70.2 17.8l-14.6 6.8v-21h.1l14.5-6.8v21zm3.9-24.1c0-.6-.4-1.2-.9-1.5L75.8.225c-.7-.3-1.6-.3-2.3 0l-18.3 8.6c-.6.3-.9.9-.9 1.5v8.6h3.9v-5.5l14.5 6.8h.1v20.9l-14.6-6.8v-5.8h-3.9v7.2c0 .6.4 1.2 1 1.5l18.2 8.6c.7.3 1.6.3 2.3 0l18.3-8.5c.6-.3 1-.9 1-1.5v-25.5H95zm-19.8 6.3l-.5.3-.6-.3-13.1-6.2 13.7-6.5 13.7 6.5-13.2 6.2z" fill="#fff"/><path d="M31.4 23.825c0 1.1.9 1.9 1.9 1.9h28.3c1.1 0 1.9-.9 1.9-1.9 0-1-.9-1.9-1.9-1.9H33.4c-1.1-.1-2 .8-2 1.9z" fill="#fff"/></svg>