<svg width="82" height="70" fill="none" xmlns="http://www.w3.org/2000/svg"><path d="M66.102 37.854V7.638C66.102 3.44 62.672 0 58.488 0H7.614C3.431 0 0 3.441 0 7.638v30.216c0 4.196 3.43 7.638 7.614 7.638h2.092v9.064c0 1.679 1.423 3.106 3.096 3.106.92 0 1.757-.42 2.343-1.091l9.539-11.08H58.57c4.184 0 7.531-3.44 7.531-7.637zM23.68 41.295a2.06 2.06 0 0 0-1.59.755l-8.2 9.569v-8.142c0-1.175-.92-2.098-2.092-2.098H7.614c-1.924 0-3.43-1.51-3.43-3.441V7.722c0-1.93 1.506-3.441 3.43-3.441h50.957c1.925 0 3.431 1.51 3.431 3.44v30.217c0 1.93-1.506 3.44-3.43 3.44H23.68v-.083zm33.636 16.619H27.53a2.075 2.075 0 0 1-2.092-2.099c0-1.175.92-2.098 2.092-2.098h30.79a2.06 2.06 0 0 1 1.59.755l8.2 9.569v-8.142c0-1.175.92-2.098 2.092-2.098h4.184c1.924 0 3.43-1.51 3.43-3.441V20.144c0-1.93-1.506-3.441-3.43-3.441a2.075 2.075 0 0 1-2.092-2.099c0-1.175.92-2.098 2.092-2.098 4.183 0 7.614 3.441 7.614 7.638V50.36c0 4.196-3.43 7.638-7.614 7.638h-2.092v8.98c0 1.343-.753 2.434-2.008 2.854-.335.168-.753.168-1.088.168-.837 0-1.673-.336-2.343-1.091l-9.539-10.995zM35.896 23.5a2.826 2.826 0 0 1-2.845 2.854 2.826 2.826 0 0 1-2.845-2.854 2.826 2.826 0 0 1 2.845-2.854c1.59 0 2.845 1.343 2.845 2.854zm9.455 0a2.826 2.826 0 0 1-2.845 2.854 2.826 2.826 0 0 1-2.845-2.854 2.826 2.826 0 0 1 2.845-2.854c1.59.084 2.845 1.343 2.845 2.854zm-18.91 0a2.826 2.826 0 0 1-2.845 2.854A2.826 2.826 0 0 1 20.75 23.5a2.826 2.826 0 0 1 2.845-2.854c1.59.084 2.845 1.343 2.845 2.854z" fill="#fff"/></svg>