<svg width="85" height="57" fill="none" xmlns="http://www.w3.org/2000/svg"><path d="M76.062 17.6V8.845h-8.849V0H0v39.4h8.849v8.755h8.848V57H85V17.6h-8.938zm-13.228 6.97c-.715.179-1.43.447-2.145.715-3.754 1.608-6.614 4.735-7.955 8.577-.09.357-.268.714-.358 1.072H14.837c-.09-.358-.179-.715-.357-1.072-1.341-3.842-4.201-6.97-7.955-8.577-.715-.268-1.43-.536-2.145-.715v-9.738c.715-.179 1.43-.447 2.145-.715 3.754-1.608 6.614-4.735 7.954-8.577.09-.357.269-.715.358-1.072h37.629c.09.357.179.715.357 1.072 1.341 3.842 4.201 6.969 7.955 8.577.715.268 1.43.536 2.145.715v9.738h-.09zm0 4.646v5.807h-5.81l.536-1.072c.715-1.43 1.788-2.591 3.129-3.574a8.446 8.446 0 0 1 2.145-1.161zm0-19.03a8.447 8.447 0 0 1-2.145-1.161A9.281 9.281 0 0 1 57.56 5.45l-.536-1.072h5.81v5.807zM10.189 4.378c-.178.357-.268.714-.536 1.072-.715 1.43-1.877 2.68-3.128 3.574-.626.446-1.341.804-2.145 1.161V4.378h5.81zM4.38 29.215a8.45 8.45 0 0 1 2.146 1.161 9.281 9.281 0 0 1 3.128 3.574l.536 1.072H4.38v-5.807zM13.23 39.4h54.074V13.223h4.38v30.554H13.227V39.4zm67.3 13.222H22.077v-4.467H76.15V22.067h4.38v30.555z" fill="#3EC7C6"/><path d="M33.606 10.006a9.61 9.61 0 0 0-9.653 9.65 9.61 9.61 0 0 0 9.653 9.648 9.61 9.61 0 0 0 9.653-9.649c.09-5.271-4.29-9.649-9.653-9.649zm0 14.92c-2.86 0-5.273-2.322-5.273-5.27 0-2.86 2.324-5.272 5.273-5.272 2.95 0 5.273 2.323 5.273 5.271 0 2.949-2.323 5.271-5.273 5.271zm-16.624-7.415h-5.989a2.212 2.212 0 0 0-2.234 2.234c0 1.25.983 2.233 2.234 2.233h5.989a2.212 2.212 0 0 0 2.234-2.233 2.212 2.212 0 0 0-2.234-2.234zm39.238 0h-5.988a2.212 2.212 0 0 0-2.234 2.234c0 1.25.983 2.233 2.234 2.233h5.989a2.212 2.212 0 0 0 2.234-2.233 2.212 2.212 0 0 0-2.234-2.234z" fill="#3EC7C6"/></svg>