<svg width="82" height="64" fill="none" xmlns="http://www.w3.org/2000/svg"><path d="M78.613 30.165c-3.403-6.803-8.776-11.636-14.686-13.247-4.12-.985-7.97-.448-11.284 1.61-2.597.896-5.284 1.433-8.06 1.701v-5.37c0-1.611.359-5.46 3.583-5.46 3.313 0 7.164-1.343 7.164-7.609 0-.984-.806-1.79-1.791-1.79-.986 0-1.791.806-1.791 1.79 0 3.402-1.254 4.028-3.582 4.028-4.389 0-7.165 3.58-7.165 9.04v5.46c-3.76-.089-7.612-.805-11.194-2.237-3.313-2.148-7.253-2.775-11.373-1.611-6 1.611-11.463 6.534-14.955 13.516-6 11.905-4.03 26.137 4.298 31.687C10.106 63.194 12.613 64 15.39 64c1.254 0 2.597-.179 3.94-.537 5.822-1.522 11.195-6.266 14.777-12.89 4.657-1.969 9.94-1.969 14.597-.179 3.492 6.535 8.776 11.1 14.507 12.621 4.12 1.075 7.97.448 11.284-1.79 8.06-5.37 9.94-19.334 4.12-31.06zm-6.268 28.106c-2.418 1.611-5.374 2.06-8.418 1.254-4.836-1.254-9.403-5.371-12.358-11.1-.27-.537-.806-.984-1.433-1.253l-.359-.09c-5.641-2.237-12.09-2.058-17.641.359-.538.268-.985.716-1.344 1.253-3.044 5.818-7.701 10.114-12.627 11.367-3.134.806-6.09.359-8.597-1.342C2.673 54.154 1.33 41.98 6.524 31.597 9.479 25.6 14.225 21.303 19.24 19.961c1.075-.269 2.06-.448 3.045-.448 2.06 0 3.94.537 5.642 1.701.09.09.179.09.358.179 8.239 3.222 17.194 3.401 25.522.537l.269-.09c.179-.089.269-.089.448-.178 2.507-1.612 5.373-2.06 8.507-1.254 4.836 1.253 9.493 5.55 12.448 11.368 5.015 10.115 3.671 22.02-3.134 26.495z" fill="#3EC7C6"/><path d="M61.599 29.539a8.024 8.024 0 0 0-8.06 8.056 8.024 8.024 0 0 0 8.06 8.055c4.477 0 8.06-3.58 8.06-8.055a8.024 8.024 0 0 0-8.06-8.056zm0 12.531c-2.508 0-4.478-1.97-4.478-4.475 0-2.507 1.97-4.476 4.478-4.476a4.433 4.433 0 0 1 4.477 4.476c0 2.506-1.97 4.475-4.477 4.475zm-36.717-6.087H21.3v-3.58c0-.985-.806-1.79-1.791-1.79-.985 0-1.791.805-1.791 1.79v3.58h-3.582c-.985 0-1.791.806-1.791 1.79 0 .985.806 1.79 1.79 1.79h3.583v3.581c0 .985.806 1.79 1.79 1.79.986 0 1.792-.805 1.792-1.79v-3.58h3.582c.985 0 1.791-.806 1.791-1.79 0-.985-.806-1.79-1.791-1.79z" fill="#3EC7C6"/></svg>