<svg width="80" height="62" fill="none" xmlns="http://www.w3.org/2000/svg"><path d="M6.7 4.793V49.95h66.626V4.793C73.326 3.25 72.094 2 70.575 2H9.45C7.93 2 6.7 3.25 6.7 4.793zm39.883 18.923H31.938v-5.288c0-4.115 3.277-7.443 7.315-7.443 2.026 0 3.863.836 5.177 2.187a7.425 7.425 0 0 1 2.153 5.256v5.288zM78 49.954v3.022C78 56.866 74.912 60 71.097 60H8.919C5.103 60 2 56.866 2 52.976v-3.022h76zm-40.27 5.024h4.553" stroke="#fff" stroke-width="4" stroke-miterlimit="10" stroke-linecap="round" stroke-linejoin="round"/><path d="M48.125 42.869H30.39c-1.843 0-3.338-1.518-3.338-3.39V23.718h24.412v15.761c0 1.872-1.495 3.39-3.339 3.39z" stroke="#fff" stroke-width="4" stroke-miterlimit="10" stroke-linecap="round" stroke-linejoin="round"/></svg>