<svg width="71" height="64" fill="none" xmlns="http://www.w3.org/2000/svg"><path d="M.044 23.263a1.643 1.643 0 0 0 1.742 1.543 1.648 1.648 0 0 0 1.545-1.74A18.927 18.927 0 0 1 8.616 8.69a17.83 17.83 0 0 1 12.855-5.408c3.658 0 8.072 2.405 12.748 6.95a1.843 1.843 0 0 0 2.581 0 20.614 20.614 0 0 1 14.318-6.178h.124a15.36 15.36 0 0 1 11.12 4.636 19.061 19.061 0 0 1 5.3 13.187c0 4.912-1.898 9.636-5.3 13.186L35.946 60.501a.732.732 0 0 1-1.028 0L16.836 43.064a1.645 1.645 0 0 0-2.285 2.363l18.082 17.437a4.014 4.014 0 0 0 5.597 0l26.516-25.479A22.333 22.333 0 0 0 71 21.89a22.333 22.333 0 0 0-6.254-15.497A18.56 18.56 0 0 0 51.299.763a23.644 23.644 0 0 0-15.797 6.155C30.496 2.314 25.778 0 21.472 0A21.121 21.121 0 0 0 6.265 6.41 22.204 22.204 0 0 0 .044 23.264z" fill="#fff"/><path d="M11.132 36.425a1.646 1.646 0 0 0 1.397-.82l2.68-4.341 3.64 5.793a1.642 1.642 0 0 0 1.55.763 1.646 1.646 0 0 0 1.377-1.042l4.783-12.308 4.414 17.453a1.641 1.641 0 0 0 1.406 1.231h.189a1.646 1.646 0 0 0 1.454-.878l5.483-10.487 2.096 3.734a1.642 1.642 0 0 0 1.43.82h7.635a1.645 1.645 0 0 0 1.644-1.64 1.64 1.64 0 0 0-1.644-1.642H44.01l-3.115-5.547a1.642 1.642 0 0 0-1.43-.82 1.646 1.646 0 0 0-1.496.951l-4.932 9.363-4.545-18.266a1.64 1.64 0 0 0-1.493-1.23 1.646 1.646 0 0 0-1.63 1.041l-5.483 14.032-3.287-5.26a1.642 1.642 0 0 0-1.39-.771 1.646 1.646 0 0 0-1.397.82l-3.592 5.81H4.392a1.645 1.645 0 0 0-1.644 1.641 1.64 1.64 0 0 0 1.644 1.641l6.74-.04z" fill="#fff"/></svg>