<svg width="56" height="72" fill="none" xmlns="http://www.w3.org/2000/svg"><path d="M41.486 15.767l.072-.076c1.453-1.53.339-4.02-1.796-4.02H16.237c-2.135 0-3.248 2.49-1.796 4.02l.072.076c2.185 2.287 10.406 9.082 10.512 9.17a4.641 4.641 0 0 0 5.949 0c.106-.089 8.327-6.883 10.512-9.17z" fill="#fff"/><path d="M39.218 33.877a193.41 193.41 0 0 1 2.296-1.91C47.628 26.934 56 20.042 56 12.797v-4.36C56 3.785 52.135 0 47.385 0H8.615C3.865 0 0 3.785 0 8.438v4.359c0 7.245 8.372 14.137 14.486 19.17a193.41 193.41 0 0 1 2.296 1.91c.65.554 1.023 1.328 1.023 2.123 0 .795-.373 1.569-1.023 2.123a193.41 193.41 0 0 1-2.296 1.91C8.372 45.066 0 51.958 0 59.203v4.36C0 68.215 3.865 72 8.615 72h38.77C52.135 72 56 68.215 56 63.562c0-1.553-1.286-2.812-2.872-2.812-1.586 0-2.872 1.26-2.872 2.813 0 1.55-1.288 2.812-2.871 2.812H8.615c-1.583 0-2.871-1.262-2.871-2.813v-4.359c0-4.625 7.786-11.034 12.437-14.864.848-.698 1.65-1.358 2.37-1.972 1.905-1.623 2.998-3.944 2.998-6.367s-1.093-4.744-2.997-6.367c-.722-.614-1.523-1.274-2.37-1.972-4.652-3.83-12.438-10.24-12.438-14.864v-4.36c0-1.55 1.288-2.812 2.871-2.812h38.77c1.583 0 2.871 1.262 2.871 2.813v4.359c0 4.625-7.785 11.034-12.437 14.864-.848.698-1.65 1.358-2.37 1.973-1.905 1.622-2.998 3.943-2.998 6.366 0 2.423 1.093 4.744 2.997 6.367.752.64 1.59 1.327 2.477 2.054 2.793 2.29 5.96 4.886 8.46 7.648a2.915 2.915 0 0 0 4.053.239 2.772 2.772 0 0 0 .245-3.97c-2.784-3.076-6.27-5.934-9.072-8.23-.865-.71-1.682-1.38-2.393-1.985-.65-.554-1.023-1.328-1.023-2.123 0-.795.373-1.569 1.023-2.123z" fill="#fff"/><path d="M16.782 33.877a193.41 193.41 0 0 0-2.296-1.91C8.372 26.934 0 20.042 0 12.797v-4.36C0 3.785 3.865 0 8.615 0h38.77C52.135 0 56 3.785 56 8.438v4.359c0 7.245-8.372 14.137-14.486 19.17a193.41 193.41 0 0 0-2.296 1.91c-.65.554-1.023 1.328-1.023 2.123 0 .795.373 1.569 1.023 2.123a193.41 193.41 0 0 0 2.296 1.91C47.628 45.066 56 51.958 56 59.203v4.36C56 68.215 52.135 72 47.385 72H8.615C3.865 72 0 68.215 0 63.562c0-1.553 1.286-2.812 2.872-2.812 1.586 0 2.872 1.26 2.872 2.813 0 1.55 1.288 2.812 2.871 2.812h38.77c1.583 0 2.871-1.262 2.871-2.813v-4.359c0-4.625-7.785-11.034-12.437-14.864-.848-.698-1.65-1.358-2.37-1.972-1.905-1.623-2.998-3.944-2.998-6.367s1.093-4.744 2.997-6.367c.722-.614 1.523-1.274 2.37-1.972 4.653-3.83 12.438-10.24 12.438-14.864v-4.36c0-1.55-1.288-2.812-2.871-2.812H8.615c-1.583 0-2.871 1.262-2.871 2.813v4.359c0 4.625 7.785 11.034 12.437 14.864.848.698 1.65 1.358 2.37 1.973 1.905 1.622 2.998 3.943 2.998 6.366 0 2.423-1.093 4.744-2.997 6.367-.752.64-1.59 1.327-2.477 2.054-2.793 2.29-5.96 4.886-8.46 7.648a2.915 2.915 0 0 1-4.053.239 2.772 2.772 0 0 1-.245-3.97c2.784-3.076 6.27-5.934 9.072-8.23.865-.71 1.682-1.38 2.393-1.985.65-.554 1.023-1.328 1.023-2.123 0-.795-.373-1.569-1.023-2.123z" fill="#fff"/></svg>