<svg width="55" height="72" fill="none" xmlns="http://www.w3.org/2000/svg"><path d="M14.214 56.233l-.07.076c-1.423 1.53-.332 4.02 1.758 4.02h23.04c2.09 0 3.18-2.49 1.758-4.02l-.07-.076c-2.14-2.287-10.191-9.081-10.295-9.17a4.474 4.474 0 0 0-5.826 0c-.104.089-8.156 6.883-10.295 9.17z" fill="#fff"/><path d="M38.408 33.877c.67-.583 1.437-1.227 2.25-1.91 5.986-5.033 14.186-11.925 14.186-19.17v-4.36C54.844 3.785 51.059 0 46.406 0H8.438C3.785 0 0 3.785 0 8.438v4.359c0 7.245 8.2 14.137 14.187 19.17.811.683 1.578 1.327 2.248 1.91.637.554 1.003 1.328 1.003 2.123 0 .795-.366 1.569-1.003 2.123-.67.583-1.437 1.227-2.248 1.91C8.2 45.066 0 51.958 0 59.203v4.36C0 68.215 3.785 72 8.438 72h37.968c4.653 0 8.438-3.785 8.438-8.438a2.812 2.812 0 1 0-5.625 0 2.816 2.816 0 0 1-2.813 2.813H8.438a2.816 2.816 0 0 1-2.813-2.813v-4.359c0-4.625 7.625-11.035 12.181-14.864.83-.698 1.615-1.358 2.321-1.972 1.866-1.623 2.936-3.944 2.936-6.367s-1.07-4.744-2.936-6.367c-.706-.614-1.49-1.274-2.32-1.972-4.557-3.83-12.182-10.24-12.182-14.864v-4.36a2.816 2.816 0 0 1 2.813-2.812h37.968a2.816 2.816 0 0 1 2.813 2.813v4.359c0 4.625-7.626 11.035-12.181 14.864-.83.698-1.615 1.358-2.321 1.972C32.85 31.256 31.78 33.577 31.78 36s1.07 4.744 2.935 6.367c.736.64 1.557 1.327 2.425 2.053 2.736 2.29 5.837 4.887 8.285 7.648a2.813 2.813 0 0 0 4.21-3.73c-2.726-3.076-6.14-5.934-8.885-8.231-.847-.71-1.647-1.379-2.343-1.984-.636-.554-1.002-1.328-1.002-2.123 0-.795.366-1.569 1.002-2.123z" fill="#fff"/><path d="M30.46 26.049c.052-.045 2.015-1.731 4.25-3.709 1.752-1.55.674-4.48-1.649-4.48H22.064c-2.323 0-3.401 2.93-1.65 4.48 2.236 1.978 4.2 3.664 4.25 3.709a4.392 4.392 0 0 0 5.797 0z" fill="#fff"/><path d="M16.435 38.123c-.67.583-1.437 1.227-2.248 1.91C8.2 45.066 0 51.958 0 59.203v4.36C0 68.214 3.785 72 8.438 72h37.968c4.653 0 8.438-3.785 8.438-8.437v-4.36c0-7.245-8.2-14.137-14.187-19.17a182.563 182.563 0 0 1-2.248-1.91c-.637-.554-1.003-1.328-1.003-2.123 0-.795.366-1.569 1.003-2.123.67-.583 1.436-1.227 2.248-1.91 5.987-5.033 14.187-11.925 14.187-19.17v-4.36C54.844 3.785 51.059 0 46.406 0H8.438C3.785 0 0 3.785 0 8.437a2.812 2.812 0 1 0 5.625 0 2.816 2.816 0 0 1 2.813-2.812h37.968a2.816 2.816 0 0 1 2.813 2.812v4.36c0 4.625-7.625 11.035-12.181 14.864-.83.698-1.615 1.358-2.321 1.972C32.85 31.256 31.78 33.577 31.78 36s1.07 4.744 2.935 6.367c.707.614 1.491 1.274 2.322 1.972 4.556 3.83 12.18 10.24 12.18 14.864v4.36a2.816 2.816 0 0 1-2.812 2.812H8.438a2.816 2.816 0 0 1-2.813-2.813v-4.359c0-4.625 7.625-11.035 12.181-14.864.83-.698 1.615-1.358 2.321-1.972 1.866-1.623 2.936-3.944 2.936-6.367s-1.07-4.744-2.936-6.367c-.736-.64-1.556-1.326-2.424-2.053-2.736-2.29-5.838-4.887-8.286-7.648a2.813 2.813 0 0 0-4.21 3.73c2.727 3.076 6.141 5.934 8.885 8.231.847.71 1.648 1.379 2.343 1.984.637.554 1.003 1.328 1.003 2.123 0 .795-.366 1.569-1.003 2.123z" fill="#fff"/></svg>