<svg width="56" height="72" fill="none" xmlns="http://www.w3.org/2000/svg"><path d="M39.218 33.877c.685-.583 1.468-1.227 2.296-1.91C47.627 26.934 56 20.042 56 12.797v-4.36C56 3.785 52.135 0 47.385 0H8.615C3.865 0 0 3.785 0 8.438v4.359c0 7.245 8.373 14.137 14.486 19.17.828.683 1.611 1.327 2.296 1.91.65.554 1.023 1.328 1.023 2.123 0 .795-.373 1.569-1.023 2.123-.685.583-1.468 1.227-2.296 1.91C8.373 45.066 0 51.958 0 59.203v4.36C0 68.215 3.865 72 8.615 72h38.77C52.135 72 56 68.215 56 63.562c0-1.553-1.286-2.812-2.872-2.812-1.586 0-2.872 1.26-2.872 2.813 0 1.55-1.288 2.812-2.871 2.812H8.615c-1.583 0-2.871-1.262-2.871-2.813v-4.359c0-4.625 7.786-11.035 12.438-14.864.847-.698 1.649-1.358 2.37-1.972 1.904-1.623 2.997-3.944 2.997-6.367s-1.093-4.744-2.997-6.367a190.151 190.151 0 0 0-2.37-1.972c-4.652-3.83-12.438-10.24-12.438-14.864v-4.36c0-1.55 1.288-2.812 2.871-2.812h38.77c1.583 0 2.871 1.262 2.871 2.813v4.359c0 4.625-7.786 11.035-12.438 14.864-.847.698-1.648 1.358-2.37 1.972-1.904 1.623-2.997 3.944-2.997 6.367s1.093 4.744 2.997 6.367c.752.64 1.59 1.327 2.477 2.054 2.793 2.29 5.96 4.886 8.46 7.648a2.914 2.914 0 0 0 4.053.239 2.772 2.772 0 0 0 .245-3.97c-2.784-3.076-6.27-5.934-9.072-8.23-.865-.71-1.682-1.38-2.393-1.985-.65-.554-1.023-1.328-1.023-2.123 0-.795.373-1.569 1.023-2.123z" fill="#3EC7C6"/><path d="M30.974 47.063a4.641 4.641 0 0 0-5.949 0c-.106.089-8.327 6.883-10.512 9.17l-.072.076c-1.452 1.53-.339 4.02 1.796 4.02h23.525c2.135 0 3.248-2.49 1.796-4.02l-.072-.076c-2.184-2.287-10.406-9.081-10.512-9.17z" fill="#3EC7C6"/><path d="M16.782 38.123c-.685.583-1.468 1.227-2.296 1.91C8.373 45.066 0 51.958 0 59.203v4.36C0 68.214 3.865 72 8.615 72h38.77C52.135 72 56 68.215 56 63.563v-4.36c0-7.245-8.373-14.137-14.486-19.17-.828-.683-1.611-1.327-2.296-1.91-.65-.554-1.023-1.328-1.023-2.123 0-.795.373-1.569 1.023-2.123.685-.583 1.468-1.227 2.296-1.91C47.627 26.934 56 20.042 56 12.797v-4.36C56 3.785 52.135 0 47.385 0H8.615C3.865 0 0 3.785 0 8.437c0 1.554 1.286 2.813 2.872 2.813 1.586 0 2.872-1.26 2.872-2.813 0-1.55 1.288-2.812 2.871-2.812h38.77c1.583 0 2.871 1.262 2.871 2.812v4.36c0 4.625-7.786 11.035-12.438 14.864-.847.698-1.648 1.358-2.37 1.972-1.904 1.623-2.997 3.944-2.997 6.367s1.093 4.744 2.997 6.367c.722.614 1.523 1.274 2.37 1.972 4.652 3.83 12.438 10.24 12.438 14.864v4.36c0 1.55-1.288 2.812-2.871 2.812H8.615c-1.583 0-2.871-1.262-2.871-2.813v-4.359c0-4.625 7.786-11.035 12.438-14.864.847-.698 1.649-1.358 2.37-1.972 1.904-1.623 2.997-3.944 2.997-6.367s-1.093-4.744-2.997-6.367c-.752-.64-1.59-1.327-2.477-2.054-2.793-2.29-5.96-4.886-8.46-7.648a2.914 2.914 0 0 0-4.053-.239 2.772 2.772 0 0 0-.245 3.97c2.784 3.076 6.27 5.934 9.072 8.23.865.71 1.682 1.38 2.393 1.985.65.554 1.023 1.328 1.023 2.123 0 .795-.373 1.569-1.023 2.123z" fill="#3EC7C6"/></svg>