<svg width="24" height="32" fill="none" xmlns="http://www.w3.org/2000/svg"><path d="M16.808 15.056c.293-.259.629-.545.984-.848C20.412 11.97 24 8.908 24 5.688V3.75C24 1.682 22.344 0 20.308 0H3.692C1.656 0 0 1.682 0 3.75v1.938c0 3.22 3.588 6.283 6.208 8.52.355.303.69.59.984.848.279.247.439.59.439.944 0 .353-.16.697-.439.944-.293.259-.629.545-.984.848C3.588 20.03 0 23.092 0 26.312v1.938C0 30.318 1.656 32 3.692 32h16.616C22.344 32 24 30.318 24 28.25c0-.69-.551-1.25-1.23-1.25-.68 0-1.232.56-1.232 1.25s-.552 1.25-1.23 1.25H3.692c-.678 0-1.23-.56-1.23-1.25v-1.938c0-2.055 3.336-4.904 5.33-6.606.363-.31.707-.603 1.016-.876A3.782 3.782 0 0 0 10.092 16a3.782 3.782 0 0 0-1.284-2.83c-.31-.273-.653-.566-1.016-.876-1.994-1.702-5.33-4.551-5.33-6.607V3.75c0-.69.552-1.25 1.23-1.25h16.616c.678 0 1.23.56 1.23 1.25v1.938c0 2.055-3.336 4.904-5.33 6.606-.363.31-.707.603-1.016.876A3.782 3.782 0 0 0 13.908 16c0 1.077.468 2.108 1.284 2.83.322.284.681.59 1.061.913 1.198 1.017 2.555 2.171 3.626 3.399.45.516 1.229.564 1.737.106a1.264 1.264 0 0 0 .105-1.765c-1.193-1.366-2.687-2.637-3.888-3.657-.37-.316-.72-.614-1.025-.883a1.267 1.267 0 0 1-.439-.943c0-.353.16-.697.439-.944z" fill="#fff"/><path d="M13.275 20.917a1.935 1.935 0 0 0-2.55 0c-.045.04-3.569 3.059-4.505 4.075l-.03.034c-.623.68-.146 1.787.769 1.787H17.04c.915 0 1.392-1.107.77-1.787l-.031-.034c-.936-1.016-4.46-4.036-4.505-4.075z" fill="#fff"/><path d="M7.192 16.944c-.293.259-.629.545-.984.848C3.588 20.03 0 23.092 0 26.312v1.938C0 30.318 1.656 32 3.692 32h16.616C22.344 32 24 30.318 24 28.25v-1.938c0-3.22-3.588-6.283-6.208-8.52a97.91 97.91 0 0 1-.984-.848 1.267 1.267 0 0 1-.439-.944c0-.353.16-.697.439-.944.293-.259.629-.545.984-.848C20.412 11.97 24 8.908 24 5.688V3.75C24 1.682 22.344 0 20.308 0H3.692C1.656 0 0 1.682 0 3.75 0 4.44.551 5 1.23 5c.68 0 1.232-.56 1.232-1.25s.552-1.25 1.23-1.25h16.616c.678 0 1.23.56 1.23 1.25v1.938c0 2.055-3.336 4.904-5.33 6.606-.363.31-.707.603-1.016.876A3.782 3.782 0 0 0 13.908 16c0 1.077.468 2.108 1.284 2.83.31.273.653.566 1.016.876 1.994 1.702 5.33 4.551 5.33 6.607v1.937c0 .69-.552 1.25-1.23 1.25H3.692c-.678 0-1.23-.56-1.23-1.25v-1.938c0-2.055 3.336-4.904 5.33-6.606.363-.31.707-.603 1.016-.876A3.782 3.782 0 0 0 10.092 16a3.782 3.782 0 0 0-1.284-2.83 78.87 78.87 0 0 0-1.061-.913c-1.198-1.017-2.555-2.171-3.626-3.399a1.218 1.218 0 0 0-1.737-.106 1.264 1.264 0 0 0-.105 1.765c1.193 1.366 2.687 2.637 3.888 3.657.37.316.72.614 1.025.883.279.246.439.59.439.943s-.16.697-.439.944z" fill="#fff"/><path d="M10.817 10.896a1.936 1.936 0 0 0 2.55 0c.045-.04 3.568-3.06 4.505-4.076l.03-.034c.623-.68.146-1.786-.77-1.786H7.052c-.915 0-1.392 1.106-.77 1.786l.03.034c.937 1.016 4.46 4.036 4.506 4.076z" fill="#fff"/></svg>